<svg xmlns="http://www.w3.org/2000/svg" xmlns:xlink="http://www.w3.org/1999/xlink"><symbol id="ok" viewBox="0 0 10 17"><g fill="none">
<path d="M4.68032 2.88879C5.57882 2.88879 6.30952 3.64309 6.30952 4.57061C6.30952 5.49533 5.57882 6.24963 4.68032 6.24963C3.78183 6.24963 3.05113 5.49533 3.05113 4.57061C3.05113 3.64309 3.78183 2.88879 4.68032 2.88879ZM4.68032 8.62987C6.85078 8.62987 8.61529 6.80837 8.61529 4.57061C8.61529 2.33005 6.85078 0.508545 4.68032 0.508545C2.50987 0.508545 0.748059 2.33005 0.748059 4.57061C0.748059 6.80837 2.50987 8.62987 4.68032 8.62987ZM6.27163 11.9432C7.0727 11.7532 7.844 11.4264 8.55576 10.9654C9.09431 10.6162 9.25669 9.88146 8.9184 9.32551C8.57741 8.76676 7.86835 8.59914 7.32709 8.95115C5.71684 9.996 3.64381 9.996 2.03085 8.95115C1.49229 8.59914 0.780535 8.76676 0.442247 9.32551C0.103958 9.88146 0.266336 10.6162 0.804892 10.9654C1.51665 11.4264 2.28795 11.7532 3.08902 11.9432L0.888787 14.2117C0.43954 14.6755 0.43954 15.4298 0.888787 15.8935C1.11612 16.1254 1.4084 16.2427 1.70339 16.2427C1.99837 16.2427 2.29336 16.1254 2.52069 15.8935L4.68032 13.6641L6.84266 15.8935C7.29191 16.3601 8.01991 16.3601 8.47186 15.8935C8.92111 15.4298 8.92111 14.6755 8.47186 14.2117L6.27163 11.9432Z" fill="#030A1A"/>
</g></symbol><symbol id="reddit" viewBox="0 0 15 15"><g fill="none">
<path d="M8.85089 0.555664C8.40551 0.555664 7.98758 0.781596 7.71951 1.10741C7.45144 1.43323 7.30368 1.8304 7.19603 2.24897C7.02506 2.92201 6.97229 3.66877 6.95963 4.34181C5.70793 4.42505 4.57444 4.79606 3.63303 5.36921C3.25098 5.04815 2.79083 4.86978 2.34968 4.87454C1.84731 4.87929 1.37028 5.09571 1.01566 5.54044C0.338103 6.38947 0.416202 7.77836 1.20141 8.60361C1.15286 8.85808 1.11698 9.11969 1.11698 9.38367C1.11698 12.1805 3.97498 14.4446 7.49999 14.4446C11.025 14.4446 13.883 12.1781 13.883 9.38367C13.883 9.11969 13.8471 8.85808 13.7986 8.60361C14.5838 7.77836 14.6619 6.38947 13.9843 5.54044C13.6297 5.09571 13.1527 4.87929 12.6503 4.87454C12.2091 4.86978 11.749 5.04815 11.3669 5.36921C10.4298 4.79843 9.3026 4.42743 8.05723 4.34181C8.07412 3.72109 8.11845 3.07659 8.24298 2.59143C8.32108 2.28702 8.41396 2.06584 8.51316 1.94455C8.61237 1.82326 8.68414 1.77332 8.85089 1.77332C9.21183 1.77332 9.25827 1.88985 9.47568 2.17286C9.58544 2.31556 9.71209 2.49393 9.91472 2.66754C10.1174 2.84115 10.4171 2.99098 10.7421 2.99098V1.77332C10.6514 1.77332 10.6345 1.77094 10.5733 1.71624C10.5121 1.66154 10.4276 1.5355 10.3031 1.37378C10.054 1.04796 9.57066 0.555664 8.85089 0.555664ZM12.3632 0.669819C11.5231 0.669819 10.8435 1.43561 10.8435 2.38215C10.8435 3.32869 11.5231 4.09448 12.3632 4.09448C13.2033 4.09448 13.883 3.32869 13.883 2.38215C13.883 1.43561 13.2033 0.669819 12.3632 0.669819ZM12.3632 1.27865C12.9036 1.27865 13.3426 1.77332 13.3426 2.38215C13.3426 2.99098 12.9036 3.48565 12.3632 3.48565C11.8229 3.48565 11.3838 2.99098 11.3838 2.38215C11.3838 1.77332 11.8229 1.27865 12.3632 1.27865ZM7.49999 5.29311C10.491 5.29311 13.0218 7.16953 13.0218 9.38367C13.0218 11.6002 10.491 13.4742 7.49999 13.4742C4.50901 13.4742 1.97818 11.6002 1.97818 9.38367C1.97818 7.16953 4.50901 5.29311 7.49999 5.29311ZM2.36656 5.84486C2.51643 5.84724 2.67263 5.88529 2.82249 5.95901C2.28002 6.42277 1.84942 6.95549 1.55602 7.55719C1.35339 7.0863 1.40827 6.49887 1.65734 6.18732C1.83887 5.95901 2.09005 5.84248 2.36656 5.84486ZM12.6334 5.84486C12.9099 5.84248 13.1611 5.95901 13.3426 6.18732C13.5917 6.49887 13.6466 7.0863 13.4439 7.55719C13.1506 6.95549 12.72 6.42277 12.1775 5.95901C12.3273 5.88529 12.4835 5.84724 12.6334 5.84486ZM5.33855 7.36693C4.79819 7.36693 4.35914 7.8616 4.35914 8.47043C4.35914 9.07926 4.79819 9.57393 5.33855 9.57393C5.87891 9.57393 6.31795 9.07926 6.31795 8.47043C6.31795 7.8616 5.87891 7.36693 5.33855 7.36693ZM9.66143 7.36693C9.12107 7.36693 8.68202 7.8616 8.68202 8.47043C8.68202 9.07926 9.12107 9.57393 9.66143 9.57393C10.2018 9.57393 10.6408 9.07926 10.6408 8.47043C10.6408 7.8616 10.2018 7.36693 9.66143 7.36693ZM4.81507 11.115C5.15913 11.9165 6.22296 12.6942 7.49999 12.6942C8.77701 12.6942 9.85773 11.9165 10.2018 11.115C9.577 11.5693 8.59126 11.8761 7.49999 11.8761C6.40871 11.8761 5.43986 11.5693 4.81507 11.115Z" fill="#030A1A"/>
</g></symbol><symbol id="vk" viewBox="0 0 15 15"><g fill="none">
<path d="M8.72271 9.05176C9.16539 8.90867 9.73216 9.99638 10.3355 10.4127C10.7884 10.728 11.1352 10.6599 11.1352 10.6599L12.7434 10.6368C12.7434 10.6368 13.5838 10.5849 13.1865 9.9172C13.1536 9.86163 12.9536 9.4222 11.9895 8.51786C10.9815 7.57185 11.1181 7.72512 12.3317 6.08962C13.0712 5.09267 13.3671 4.48376 13.2745 4.22445C13.1856 3.97486 12.6424 4.03969 12.6424 4.03969L10.8305 4.05219C10.6541 4.05265 10.5045 4.10729 10.4365 4.29066C10.4351 4.29252 10.1489 5.06211 9.76735 5.7164C8.96118 7.10046 8.63936 7.17408 8.506 7.08749C8.19992 6.88699 8.27725 6.28317 8.27725 5.85392C8.27725 4.51246 8.47729 3.9531 7.88551 3.80863C7.68779 3.76047 7.54332 3.72898 7.03905 3.72435C6.39449 3.71463 5.84716 3.72435 5.53692 3.8767C5.33086 3.97996 5.17296 4.20639 5.26881 4.21935C5.3892 4.23556 5.65916 4.29344 5.80363 4.4907C5.98932 4.74631 5.98376 5.3191 5.98376 5.3191C5.98376 5.3191 6.0898 6.89857 5.73371 7.09444C5.48922 7.22872 5.1549 6.9546 4.43578 5.69788C4.06858 5.05516 3.79121 4.34484 3.79121 4.34484C3.79121 4.34484 3.7375 4.21287 3.64026 4.14063C3.52449 4.05497 3.36243 4.02765 3.36243 4.02765L1.64265 4.03876C1.64265 4.03876 1.38427 4.04617 1.28935 4.16008C1.20507 4.26103 1.2824 4.4694 1.2824 4.4694C1.2824 4.4694 2.62942 7.65566 4.15471 9.26059C5.55312 10.734 7.14231 10.6363 7.14231 10.6363H7.86236C7.86236 10.6363 8.07953 10.6113 8.19066 10.4918C8.29439 10.3807 8.28976 10.1719 8.28976 10.1719C8.28976 10.1719 8.2754 9.1953 8.72271 9.05176Z" fill="#030A1A"/>
</g></symbol></svg>